<?xml version="1.0" standalone="no"?>
<!DOCTYPE svg PUBLIC "-//W3C//DTD SVG 20010904//EN"
 "http://www.w3.org/TR/2001/REC-SVG-20010904/DTD/svg10.dtd">
<svg version="1.0" xmlns="http://www.w3.org/2000/svg"
 width="360.000000pt" height="360.000000pt" viewBox="0 0 360.000000 360.000000"
 preserveAspectRatio="xMidYMid meet">

<g transform="translate(0.000000,360.000000) scale(0.100000,-0.100000)"
fill="#000000" stroke="none">
<path d="M2135 3078 c-39 -14 -79 -42 -137 -95 -26 -24 -56 -43 -67 -43 -38 0
-184 -60 -248 -101 -262 -171 -393 -543 -294 -835 10 -30 15 -54 11 -54 -14 0
-88 88 -108 127 -11 21 -27 63 -35 93 -40 139 -145 138 -332 -2 -95 -72 -216
-189 -271 -261 -199 -266 -220 -682 -46 -940 44 -66 45 -67 27 -61 -14 6 -45
-11 -45 -25 1 -32 116 -65 385 -111 441 -75 937 -65 1362 26 74 16 94 34 71
61 -6 8 -20 12 -30 10 -10 -3 -18 -2 -18 2 0 18 28 31 68 31 168 0 354 118
431 273 27 57 35 87 44 176 12 125 6 169 -29 211 -21 24 -33 30 -67 30 l-42 0
30 25 c17 13 39 24 51 25 32 0 85 41 105 80 24 45 24 107 0 146 -19 31 -19 32
1 100 12 42 22 115 25 185 7 149 -11 235 -78 369 -84 167 -218 290 -392 360
-40 16 -84 32 -99 35 -23 6 -28 13 -28 37 0 49 -29 97 -71 118 -42 22 -124 25
-174 8z m160 -73 c19 -18 25 -35 25 -68 0 -25 6 -49 13 -54 6 -6 44 -20 82
-33 229 -74 382 -216 466 -433 38 -99 53 -232 25 -221 -9 3 -24 0 -33 -7 -19
-17 -57 -98 -49 -106 3 -4 6 -1 6 5 0 7 5 12 11 12 6 0 9 -10 7 -22 -2 -13
-10 -23 -18 -23 -11 0 -15 -12 -15 -48 0 -26 -2 -47 -4 -47 -2 0 -32 27 -67
59 -95 89 -198 120 -339 103 -69 -9 -71 -9 -104 21 -47 40 -91 57 -151 57
-129 0 -214 -87 -215 -220 0 -36 6 -80 14 -98 7 -18 11 -35 9 -38 -3 -3 -71 0
-152 6 -122 8 -152 13 -175 31 -29 21 -70 27 -109 15 -20 -7 -25 -1 -48 50
-56 128 -73 305 -40 434 36 139 129 291 229 371 70 55 148 94 254 124 76 22
95 32 138 74 65 64 99 80 163 81 43 0 57 -5 77 -25z m-1121 -800 c8 -8 22 -41
31 -73 32 -112 120 -220 223 -271 42 -21 42 -22 28 -49 -54 -105 -78 -257 -56
-353 34 -148 136 -276 273 -344 132 -65 260 -60 377 15 134 87 193 266 129
391 -29 58 -88 101 -190 139 -81 30 -194 92 -224 122 -15 16 163 1 267 -22
112 -24 185 -59 253 -122 70 -64 120 -163 137 -271 21 -140 -23 -318 -114
-457 l-43 -65 -70 -12 c-450 -76 -1030 -61 -1407 38 -64 17 -164 165 -210 311
-19 62 -23 95 -23 213 0 165 14 226 79 360 56 113 130 202 254 306 103 85 161
124 220 145 47 17 48 17 66 -1z m1736 -64 c0 -28 -31 -67 -43 -54 -12 11 -7
48 9 71 19 28 34 20 34 -17z m-687 -7 c18 -9 43 -29 57 -45 l25 -30 96 12
c151 17 222 -6 334 -111 28 -26 71 -54 96 -64 25 -9 56 -27 69 -41 46 -49 4
-165 -61 -165 -11 0 -35 11 -52 24 -46 34 -75 48 -230 105 -152 57 -264 110
-346 165 -57 39 -71 42 -89 24 -18 -18 -15 -46 7 -57 10 -6 33 -35 49 -64 32
-57 80 -101 149 -136 59 -29 196 -68 273 -75 181 -18 185 -21 101 -59 -39 -19
-64 -22 -168 -21 l-122 1 -48 53 c-65 72 -150 125 -251 157 -76 23 -85 29
-102 63 -53 104 -26 220 62 263 42 21 110 21 151 1z m661 -178 c-6 -16 -24
-23 -24 -8 0 10 22 33 27 28 2 -2 1 -11 -3 -20z m-1215 -180 c130 -96 187
-129 291 -170 52 -21 106 -46 121 -57 91 -64 76 -248 -27 -338 -67 -60 -111
-76 -204 -76 -74 0 -93 4 -145 29 -70 34 -172 132 -204 193 -11 23 -28 68 -36
100 -15 59 -20 163 -8 163 4 0 24 -16 44 -36 24 -23 43 -34 53 -31 17 7 22 47
6 47 -5 0 -24 19 -41 43 -25 35 -30 49 -26 82 5 50 45 115 71 115 10 0 57 -29
105 -64z m853 -263 c-55 -26 -65 -24 -76 12 -5 19 -2 20 62 16 l67 -4 -53 -24z
m318 -9 c6 -14 10 -46 10 -71 0 -41 -5 -51 -39 -83 -21 -20 -53 -40 -70 -43
-23 -5 -31 -12 -31 -27 0 -29 25 -35 72 -16 23 9 44 14 47 11 2 -3 -9 -33 -25
-67 -38 -81 -115 -158 -196 -196 -63 -30 -175 -59 -185 -48 -3 3 4 27 15 53
36 84 55 207 49 314 l-5 96 82 34 c86 36 192 66 239 68 21 1 30 -5 37 -25z"/>
<path d="M2010 2484 c0 -15 15 -44 35 -68 l35 -43 -57 1 c-56 1 -58 0 -61 -26
-2 -19 2 -28 15 -31 44 -12 184 -29 198 -23 29 11 15 48 -51 132 -50 64 -71
84 -90 84 -19 0 -24 -5 -24 -26z"/>
<path d="M763 754 c-3 -8 1 -21 8 -29 25 -23 291 -75 488 -95 189 -19 594 -10
709 15 15 4 22 13 22 29 0 31 -11 34 -84 22 -34 -5 -189 -10 -346 -10 -305 -1
-399 8 -638 60 -134 28 -151 29 -159 8z"/>
<path d="M987 606 c-9 -22 14 -35 92 -54 39 -9 71 -20 71 -23 0 -4 -23 -9 -51
-11 -55 -6 -75 -18 -65 -43 8 -23 83 -53 141 -57 42 -3 50 0 53 16 5 22 -13
35 -48 37 -14 0 4 7 39 15 132 29 143 33 139 57 -3 20 -11 23 -93 29 -49 5
-126 17 -169 28 -95 24 -102 24 -109 6z"/>
</g>
</svg>
