<?xml version="1.0" standalone="no"?>
<!DOCTYPE svg PUBLIC "-//W3C//DTD SVG 20010904//EN"
 "http://www.w3.org/TR/2001/REC-SVG-20010904/DTD/svg10.dtd">
<svg version="1.0" xmlns="http://www.w3.org/2000/svg"
 width="400.000000pt" height="300.000000pt" viewBox="0 0 400.000000 300.000000"
 preserveAspectRatio="xMidYMid meet">

<g transform="translate(0.000000,300.000000) scale(0.100000,-0.100000)"
fill="#000000" stroke="none">
<path d="M0 1500 l0 -1500 2000 0 2000 0 0 1500 0 1500 -2000 0 -2000 0 0
-1500z m2012 1046 c60 -21 143 -69 108 -62 -54 11 -88 14 -98 7 -7 -4 -13 -55
-16 -126 -3 -66 -12 -185 -21 -264 -13 -112 -15 -153 -6 -182 16 -54 96 -155
145 -184 61 -36 92 -33 136 14 25 26 36 33 33 20 -5 -17 18 -115 68 -289 27
-97 83 -145 334 -290 61 -35 129 -76 153 -93 24 -16 45 -27 46 -25 60 77 154
261 190 373 15 44 32 121 40 170 l13 90 22 -69 c40 -129 50 -345 22 -491 -7
-33 -9 -36 -15 -20 -5 11 -11 27 -14 35 -4 8 -9 -14 -12 -50 -4 -36 -7 -59 -8
-51 -4 34 -16 -5 -22 -72 l-6 -72 -16 50 -15 50 -8 -105 c-8 -103 -8 -104 -22
-70 -30 77 -32 76 -26 -14 4 -66 3 -87 -6 -82 -6 4 -12 0 -12 -11 -1 -10 -5
-2 -9 17 -5 24 -6 17 -3 -23 3 -44 1 -57 -8 -51 -9 5 -10 0 -5 -20 5 -20 3
-26 -5 -21 -8 5 -9 1 -4 -15 5 -17 4 -21 -6 -15 -9 6 -11 3 -6 -10 14 -34
-109 -124 -170 -125 -13 0 -23 -3 -23 -8 0 -4 -64 -8 -142 -8 -131 0 -149 -2
-218 -28 -97 -36 -203 -68 -365 -111 -71 -19 -135 -42 -141 -50 -13 -18 -79
-21 -68 -3 5 8 2 9 -9 5 -9 -3 -16 -3 -15 1 1 4 -2 19 -6 34 -5 15 -3 36 4 50
10 22 10 22 -4 4 -8 -10 -17 -23 -19 -29 -2 -6 -14 -7 -30 -3 -54 13 -24 65
48 81 23 5 35 17 52 53 17 37 43 133 43 157 0 3 -53 6 -117 7 l-118 2 113 3
c92 3 112 6 112 19 0 8 4 13 9 9 6 -3 8 10 5 32 -4 29 -3 34 5 23 8 -12 11
-12 11 -1 0 7 -28 42 -62 78 -67 68 -108 130 -153 231 -15 34 -32 62 -38 62
-9 0 -8 11 8 55 4 13 1 12 -9 -5 -10 -17 -14 -41 -11 -75 4 -42 3 -45 -5 -20
-6 20 -8 -24 -4 -130 3 -113 1 -156 -6 -145 -7 11 -8 -5 -4 -54 5 -46 4 -67
-3 -63 -6 4 -13 -17 -17 -56 -16 -153 -22 -180 -45 -198 -13 -11 -33 -19 -45
-19 -11 -1 -44 -2 -73 -3 -28 -1 -49 1 -47 5 3 5 0 8 -5 8 -20 0 -11 50 12 70
60 55 70 67 83 97 8 18 15 45 15 60 1 25 2 24 8 -7 3 -19 6 106 5 278 0 171 4
306 8 300 5 -7 6 10 2 40 -4 34 -3 52 4 52 7 0 9 14 5 37 -4 20 -2 34 3 31 5
-4 10 38 10 95 1 82 7 117 28 176 46 131 35 171 -75 277 -53 50 -104 86 -179
126 -58 31 -114 57 -125 59 -37 7 -47 66 -25 150 10 41 18 66 19 55 1 -10 6
-35 12 -56 l11 -37 49 51 c26 28 47 51 46 53 -2 1 -20 3 -41 5 -71 4 -45 15
97 39 156 26 136 15 246 133 31 34 75 68 105 82 46 23 61 25 151 21 58 -2 119
-11 147 -21z m177 -106 c11 -24 11 -24 -3 -6 -9 11 -16 24 -16 30 0 12 5 7 19
-24z m90 -185 c0 -5 -8 6 -19 25 -11 19 -19 40 -19 45 0 6 8 -6 19 -25 11 -19
19 -39 19 -45z m78 -227 c-3 -7 -5 -2 -5 12 0 14 2 19 5 13 2 -7 2 -19 0 -25z
m0 -70 c-2 -13 -4 -5 -4 17 -1 22 1 32 4 23 2 -10 2 -28 0 -40z m-850 -930
c-2 -13 -4 -3 -4 22 0 25 2 35 4 23 2 -13 2 -33 0 -45z m-89 -425 c-10 -2 -28
-2 -40 0 -13 2 -5 4 17 4 22 1 32 -1 23 -4z m-100 -10 c-10 -2 -26 -2 -35 0
-10 3 -2 5 17 5 19 0 27 -2 18 -5z m-95 -10 c-7 -2 -21 -2 -30 0 -10 3 -4 5
12 5 17 0 24 -2 18 -5z m-70 -10 c-7 -2 -19 -2 -25 0 -7 3 -2 5 12 5 14 0 19
-2 13 -5z m-56 -9 c-3 -3 -12 -4 -19 -1 -8 3 -5 6 6 6 11 1 17 -2 13 -5z m-50
-10 c-3 -3 -12 -4 -19 -1 -8 3 -5 6 6 6 11 1 17 -2 13 -5z m-50 -10 c-3 -3
-12 -4 -19 -1 -8 3 -5 6 6 6 11 1 17 -2 13 -5z m-70 -20 c-3 -3 -12 -4 -19 -1
-8 3 -5 6 6 6 11 1 17 -2 13 -5z m2098 -24 c3 -6 -1 -7 -9 -4 -18 7 -21 14 -7
14 6 0 13 -4 16 -10z m30 -79 c-7 -12 -79 -51 -92 -51 -4 1 13 12 40 26 26 13
47 30 47 36 0 6 3 9 6 5 3 -3 3 -11 -1 -16z m-2170 -39 c-3 -3 -11 0 -18 7 -9
10 -8 11 6 5 10 -3 15 -9 12 -12z m2022 -28 c-3 -3 -12 -4 -19 -1 -8 3 -5 6 6
6 11 1 17 -2 13 -5z m-1870 -10 c-3 -3 -12 -4 -19 -1 -8 3 -5 6 6 6 11 1 17
-2 13 -5z m1826 -1 c-7 -2 -19 -2 -25 0 -7 3 -2 5 12 5 14 0 19 -2 13 -5z
m-1780 -10 c-7 -2 -19 -2 -25 0 -7 3 -2 5 12 5 14 0 19 -2 13 -5z m1730 0 c-7
-2 -19 -2 -25 0 -7 3 -2 5 12 5 14 0 19 -2 13 -5z m-1660 -10 c-7 -2 -21 -2
-30 0 -10 3 -4 5 12 5 17 0 24 -2 18 -5z m1600 0 c-7 -2 -21 -2 -30 0 -10 3
-4 5 12 5 17 0 24 -2 18 -5z m-1530 -10 c-7 -2 -19 -2 -25 0 -7 3 -2 5 12 5
14 0 19 -2 13 -5z m1460 0 c-7 -2 -19 -2 -25 0 -7 3 -2 5 12 5 14 0 19 -2 13
-5z m-1375 -10 c-10 -2 -26 -2 -35 0 -10 3 -2 5 17 5 19 0 27 -2 18 -5z m1300
0 c-10 -2 -28 -2 -40 0 -13 2 -5 4 17 4 22 1 32 -1 23 -4z m-1210 -10 c-10 -2
-26 -2 -35 0 -10 3 -2 5 17 5 19 0 27 -2 18 -5z m1110 0 c-10 -2 -26 -2 -35 0
-10 3 -2 5 17 5 19 0 27 -2 18 -5z m-940 -10 c-21 -2 -55 -2 -75 0 -21 2 -4 4
37 4 41 0 58 -2 38 -4z m810 0 c-15 -2 -42 -2 -60 0 -18 2 -6 4 27 4 33 0 48
-2 33 -4z m-645 -10 c-18 -2 -48 -2 -65 0 -18 2 -4 4 32 4 36 0 50 -2 33 -4z
m475 0 c-15 -2 -42 -2 -60 0 -18 2 -6 4 27 4 33 0 48 -2 33 -4z m-281 -9 c-3
-3 -12 -4 -19 -1 -8 3 -5 6 6 6 11 1 17 -2 13 -5z"/>
<path d="M1754 2325 c-22 -54 0 -104 26 -56 13 25 13 78 0 86 -6 4 -17 -10
-26 -30z"/>
<path d="M1202 2140 c0 -14 2 -19 5 -12 2 6 2 18 0 25 -3 6 -5 1 -5 -13z"/>
<path d="M1258 2063 c7 -3 16 -2 19 1 4 3 -2 6 -13 5 -11 0 -14 -3 -6 -6z"/>
<path d="M1343 2053 c9 -2 25 -2 35 0 9 3 1 5 -18 5 -19 0 -27 -2 -17 -5z"/>
<path d="M1540 2010 c8 -5 22 -9 30 -9 10 0 8 3 -5 9 -27 12 -43 12 -25 0z"/>
<path d="M1628 1993 c7 -3 16 -2 19 1 4 3 -2 6 -13 5 -11 0 -14 -3 -6 -6z"/>
<path d="M1552 1410 c0 -14 2 -19 5 -12 2 6 2 18 0 25 -3 6 -5 1 -5 -13z"/>
<path d="M1801 1204 c0 -11 3 -14 6 -6 3 7 2 16 -1 19 -3 4 -6 -2 -5 -13z"/>
<path d="M1811 1164 c0 -11 3 -14 6 -6 3 7 2 16 -1 19 -3 4 -6 -2 -5 -13z"/>
<path d="M1822 1120 c0 -14 2 -19 5 -12 2 6 2 18 0 25 -3 6 -5 1 -5 -13z"/>
<path d="M2628 1103 c7 -3 16 -2 19 1 4 3 -2 6 -13 5 -11 0 -14 -3 -6 -6z"/>
<path d="M1831 1074 c0 -11 3 -14 6 -6 3 7 2 16 -1 19 -3 4 -6 -2 -5 -13z"/>
<path d="M2485 1054 c-38 -26 -74 -63 -75 -77 0 -4 14 8 32 28 17 20 47 45 67
55 20 11 31 19 25 20 -6 0 -28 -12 -49 -26z"/>
<path d="M1841 1034 c0 -11 3 -14 6 -6 3 7 2 16 -1 19 -3 4 -6 -2 -5 -13z"/>
<path d="M1852 1000 c0 -8 6 -31 13 -50 7 -19 13 -28 13 -20 0 8 -6 31 -13 50
-7 19 -13 28 -13 20z"/>
<path d="M2971 904 c0 -11 3 -14 6 -6 3 7 2 16 -1 19 -3 4 -6 -2 -5 -13z"/>
<path d="M1881 894 c0 -11 3 -14 6 -6 3 7 2 16 -1 19 -3 4 -6 -2 -5 -13z"/>
<path d="M2982 855 c0 -16 2 -22 5 -12 2 9 2 23 0 30 -3 6 -5 -1 -5 -18z"/>
<path d="M2393 800 c0 -41 2 -58 4 -37 2 20 2 54 0 75 -2 20 -4 3 -4 -38z"/>
<path d="M1891 844 c0 -11 3 -14 6 -6 3 7 2 16 -1 19 -3 4 -6 -2 -5 -13z"/>
<path d="M1902 770 c0 -14 2 -19 5 -12 2 6 2 18 0 25 -3 6 -5 1 -5 -13z"/>
<path d="M2402 630 c0 -14 2 -19 5 -12 2 6 2 18 0 25 -3 6 -5 1 -5 -13z"/>
<path d="M2012 479 c-14 -31 -16 -46 -8 -51 7 -5 3 -8 -8 -8 -11 0 -17 -2 -15
-5 3 -2 35 1 72 8 l67 12 -44 44 -45 45 -19 -45z"/>
<path d="M2368 503 c7 -3 16 -2 19 1 4 3 -2 6 -13 5 -11 0 -14 -3 -6 -6z"/>
<path d="M2310 490 c-8 -5 -10 -10 -5 -10 6 0 17 5 25 10 8 5 11 10 5 10 -5 0
-17 -5 -25 -10z"/>
<path d="M1851 444 c0 -11 3 -14 6 -6 3 7 2 16 -1 19 -3 4 -6 -2 -5 -13z"/>
<path d="M2198 453 c7 -3 16 -2 19 1 4 3 -2 6 -13 5 -11 0 -14 -3 -6 -6z"/>
<path d="M2138 443 c6 -2 18 -2 25 0 6 3 1 5 -13 5 -14 0 -19 -2 -12 -5z"/>
<path d="M1858 383 c7 -3 16 -2 19 1 4 3 -2 6 -13 5 -11 0 -14 -3 -6 -6z"/>
</g>
</svg>
